<svg width="31" height="31" viewBox="0 0 31 31" fill="none" xmlns="http://www.w3.org/2000/svg">
<g clip-path="url(#clip0_157_138)">
<path d="M14.0215 27.7559C14.0215 27.6092 13.9892 27.4644 13.9269 27.3316C13.8647 27.1988 13.774 27.0813 13.6613 26.9875C13.5486 26.8936 13.4166 26.8257 13.2748 26.7886C13.1329 26.7514 12.9846 26.7459 12.8403 26.7725C11.5313 27.0127 9.87843 27.0488 9.43897 25.8145C9.05578 24.8585 8.42105 24.024 7.60206 23.3995C7.54363 23.3677 7.48794 23.3311 7.43556 23.2901C7.36389 23.101 7.23658 22.9381 7.07043 22.8229C6.90428 22.7076 6.7071 22.6455 6.50489 22.6446H6.50001C6.23561 22.6445 5.98194 22.7491 5.79453 22.9356C5.60711 23.1221 5.50121 23.3753 5.50001 23.6397C5.4961 24.4551 6.31101 24.9776 6.64161 25.1543C7.03146 25.546 7.34477 26.0071 7.56544 26.5137C7.9297 27.5372 8.98829 29.0899 12.0313 28.8897C12.0323 28.9249 12.0332 28.9581 12.0337 28.9883L12.0381 29.2559C12.0381 29.5211 12.1435 29.7755 12.331 29.963C12.5185 30.1506 12.7729 30.2559 13.0381 30.2559C13.3033 30.2559 13.5577 30.1506 13.7452 29.963C13.9327 29.7755 14.0381 29.5211 14.0381 29.2559L14.0332 28.9376C14.0283 28.7481 14.0215 28.4736 14.0215 27.7559ZM24.6885 12.6299C24.7202 12.5049 24.7515 12.3662 24.7788 12.2099C24.9406 11.0955 24.7996 9.95814 24.3706 8.91695C24.3165 8.78121 24.2333 8.65896 24.127 8.55875C24.0206 8.45855 23.8936 8.38282 23.7549 8.33688C23.3989 8.21676 22.0845 7.98043 19.5708 9.58688C17.4814 9.09517 15.3063 9.09517 13.2168 9.58688C10.7134 8.00396 9.40577 8.21876 9.05323 8.33204C8.9111 8.37612 8.78063 8.45144 8.67138 8.5525C8.56214 8.65355 8.47689 8.77776 8.42188 8.91604C7.98419 9.97722 7.84472 11.1378 8.01856 12.2725C8.04298 12.4004 8.06934 12.5186 8.09669 12.627C7.26826 13.7304 6.827 15.0763 6.84132 16.4561C6.83862 16.7639 6.85281 17.0717 6.8838 17.3779C7.2178 21.9805 10.2178 23.3623 12.3081 23.8369C12.2647 23.9619 12.2251 24.0957 12.19 24.2373C12.1273 24.4946 12.1692 24.7663 12.3066 24.9927C12.4439 25.2191 12.6654 25.3818 12.9225 25.4452C13.1797 25.5085 13.4514 25.4673 13.6782 25.3306C13.905 25.1939 14.0683 24.9728 14.1323 24.7158C14.196 24.3826 14.3591 24.0766 14.6001 23.8379C14.7459 23.7103 14.8514 23.5431 14.9039 23.3566C14.9563 23.1701 14.9535 22.9724 14.8956 22.7875C14.8378 22.6026 14.7275 22.4385 14.5781 22.3152C14.4287 22.1919 14.2467 22.1146 14.0542 22.0928C10.6001 21.6983 9.10059 20.291 8.87501 17.1944C8.85003 16.9491 8.83878 16.7026 8.84132 16.4561C8.82528 15.4727 9.15015 14.5142 9.76075 13.7432C9.82211 13.6628 9.88746 13.5856 9.95655 13.5117C10.079 13.3747 10.1613 13.2067 10.1945 13.0259C10.2276 12.8452 10.2104 12.6589 10.1446 12.4873C10.0771 12.3069 10.0251 12.121 9.98928 11.9317C9.90782 11.3934 9.93454 10.8442 10.0679 10.3164C10.937 10.5619 11.755 10.9615 12.4829 11.4961C12.6033 11.5763 12.7395 11.6296 12.8823 11.6525C13.0251 11.6755 13.1711 11.6674 13.3105 11.6289C15.3316 11.0804 17.4624 11.0808 19.4834 11.6299C19.6235 11.6684 19.7704 11.676 19.9138 11.6522C20.0571 11.6284 20.1937 11.5738 20.3139 11.4922C21.0384 10.9554 21.853 10.5522 22.7192 10.3018C22.852 10.817 22.8817 11.3533 22.8066 11.8799C22.7704 12.0875 22.7138 12.2909 22.6377 12.4873C22.5719 12.6589 22.5546 12.8452 22.5878 13.026C22.6209 13.2067 22.7032 13.3748 22.8257 13.5118C22.9028 13.5987 22.98 13.6924 23.0493 13.7803C23.6556 14.5382 23.975 15.4858 23.9512 16.4561C23.953 16.7157 23.9404 16.9752 23.9136 17.2334C23.6934 20.2891 22.188 21.6973 18.7178 22.0928C18.5252 22.1147 18.3432 22.1921 18.1938 22.3156C18.0445 22.439 17.9342 22.6032 17.8764 22.7882C17.8186 22.9732 17.8159 23.171 17.8684 23.3575C17.9209 23.544 18.0265 23.7113 18.1724 23.8389C18.421 24.0839 18.5845 24.4022 18.6387 24.7471C18.7063 25.0148 18.7373 25.2904 18.731 25.5664V27.9004C18.7212 28.5479 18.7212 29.0332 18.7212 29.2559C18.7212 29.5211 18.8265 29.7754 19.0141 29.963C19.2016 30.1505 19.456 30.2559 19.7212 30.2559C19.9864 30.2559 20.2408 30.1505 20.4283 29.963C20.6158 29.7754 20.7212 29.5211 20.7212 29.2559C20.7212 29.0391 20.7212 28.5635 20.731 27.916V25.5664C20.739 25.1242 20.6869 24.683 20.5762 24.2549C20.5445 24.1143 20.5057 23.9755 20.46 23.8389C21.9812 23.5862 23.3634 22.8018 24.3606 21.6255C25.3577 20.4492 25.9051 18.9572 25.9053 17.4151C25.9382 17.0965 25.9535 16.7763 25.9512 16.4561C25.9734 15.0748 25.5284 13.7266 24.6885 12.6299L24.6885 12.6299Z" fill="#5671A6"/>
</g>
<defs>
<clipPath id="clip0_157_138">
<rect width="30" height="30" fill="white" transform="translate(0.5 0.25)"/>
</clipPath>
</defs>
</svg>
